<svg width="27" height="27" viewBox="0 0 27 27" fill="none" xmlns="http://www.w3.org/2000/svg">
<path d="M6.4444 9.49995H3.66663V6.72217" stroke="#FFC548" stroke-width="1.5" stroke-linecap="round" stroke-linejoin="round"/>
<path d="M23.4711 13.667C23.4711 11.0148 22.4175 8.47129 20.5421 6.59592C18.6668 4.72056 16.1232 3.66699 13.4711 3.66699C9.43663 3.66699 5.96997 6.06033 4.38885 9.50033" stroke="#FFC548" stroke-width="1.5" stroke-linecap="round" stroke-linejoin="round"/>
<path d="M15.3566 13.6667L16.8077 15.5378C16.9589 15.7326 17.041 15.9722 17.0411 16.2189V17.2778C17.0411 17.4251 16.9825 17.5664 16.8783 17.6706C16.7742 17.7748 16.6328 17.8333 16.4855 17.8333H10.8477C10.7004 17.8333 10.5591 17.7748 10.4549 17.6706C10.3507 17.5664 10.2922 17.4251 10.2922 17.2778V16.1989C10.2922 15.9656 10.3655 15.7367 10.5033 15.5478L11.8644 13.6667L10.5033 11.7867C10.3665 11.5971 10.2927 11.3693 10.2922 11.1356V10.0556C10.2922 9.90821 10.3507 9.7669 10.4549 9.66272C10.5591 9.55853 10.7004 9.5 10.8477 9.5H16.4855C16.6328 9.5 16.7742 9.55853 16.8783 9.66272C16.9825 9.7669 17.0411 9.90821 17.0411 10.0556V11.1144C17.041 11.3611 16.9589 11.6007 16.8077 11.7956L15.3566 13.6667Z" stroke="#FFC548" stroke-width="1.5" stroke-linecap="round" stroke-linejoin="round"/>
<path d="M20.8889 17.8335H23.6666V20.6113" stroke="#FFC548" stroke-width="1.5" stroke-linecap="round" stroke-linejoin="round"/>
<path d="M3.86218 13.667C3.86218 16.3192 4.91575 18.8627 6.79111 20.7381C8.66648 22.6134 11.21 23.667 13.8622 23.667C17.8955 23.667 21.3633 21.2737 22.9444 17.8337" stroke="#FFC548" stroke-width="1.5" stroke-linecap="round" stroke-linejoin="round"/>
</svg>
